<?xml version="1.0" encoding="UTF-8" standalone="no"?>
<!DOCTYPE svg PUBLIC "-//W3C//DTD SVG 1.0//EN" "http://www.w3.org/TR/2001/PR-SVG-20010719/DTD/svg10.dtd">
<svg width="52cm" height="36cm" viewBox="131 90 1024 707" xmlns="http://www.w3.org/2000/svg" xmlns:xlink="http://www.w3.org/1999/xlink">
  <g>
    <rect style="fill: #e5e5e5" x="232.4" y="202.3" width="920" height="540"/>
    <rect style="fill: none; fill-opacity:0; stroke-width: 4; stroke-dasharray: 20 4 4 4 4 4; stroke: #000000" x="232.4" y="202.3" width="920" height="540"/>
  </g>
  <ellipse style="fill: none; fill-opacity:0; stroke-width: 2; stroke-dasharray: 4; stroke: #000000" cx="871.4" cy="409.248" rx="99" ry="66.9479"/>
  <ellipse style="fill: none; fill-opacity:0; stroke-width: 2; stroke-dasharray: 4; stroke: #000000" cx="651.4" cy="409.248" rx="99" ry="66.9479"/>
  <ellipse style="fill: none; fill-opacity:0; stroke-width: 2; stroke-dasharray: 4; stroke: #000000" cx="431.4" cy="409.248" rx="99" ry="66.9479"/>
  <path style="fill: none; fill-opacity:0; stroke-width: 2; stroke: #000000" d="M 352.4 362.3 L 352.4,381.7 C 362.4,379.275 372.4,376.85 372.4,388.975 C 372.4,401.1 352.4,403.525 352.4,396.25 C 352.4,388.975 372.4,391.4 372.4,403.525 C 372.4,415.65 352.4,418.075 352.4,410.8 C 352.4,403.525 372.4,405.95 372.4,418.075 C 372.4,430.2 352.4,432.625 352.4,425.35 C 352.4,418.075 372.4,420.5 372.4,432.625 C 372.4,444.75 357.4,442.325 352.4,439.9 L 352.4,459.3"/>
  <line style="fill: none; fill-opacity:0; stroke-width: 4; stroke: #000000" x1="391.4" y1="360.3" x2="390.4" y2="461.3"/>
  <g>
    <line style="fill: none; fill-opacity:0; stroke-width: 2; stroke: #000000" x1="412.4" y1="322.3" x2="412.4" y2="395.128"/>
    <polygon style="fill: #000000" points="412.4,402.3 407.4,397.3 412.4,392.3 417.4,397.3 "/>
    <polygon style="fill: none; fill-opacity:0; stroke-width: 2; stroke: #000000" points="412.4,402.3 407.4,397.3 412.4,392.3 417.4,397.3 "/>
  </g>
  <line style="fill: none; fill-opacity:0; stroke-width: 2; stroke: #ff0000" x1="432.4" y1="582.3" x2="431.4" y2="420.3"/>
  <line style="fill: none; fill-opacity:0; stroke-width: 2; stroke: #000000" x1="432.4" y1="421.3" x2="440.4" y2="391.3"/>
  <g>
    <line style="fill: none; fill-opacity:0; stroke-width: 2; stroke: #000000" x1="452.4" y1="362.3" x2="452.4" y2="395.128"/>
    <polygon style="fill: #000000" points="452.4,402.3 447.4,397.3 452.4,392.3 457.4,397.3 "/>
    <polygon style="fill: none; fill-opacity:0; stroke-width: 2; stroke: #000000" points="452.4,402.3 447.4,397.3 452.4,392.3 457.4,397.3 "/>
  </g>
  <g>
    <line style="fill: none; fill-opacity:0; stroke-width: 2; stroke: #000000" x1="513.4" y1="366.3" x2="512.589" y2="397.131"/>
    <polygon style="fill: #000000" points="512.4,404.3 507.533,399.17 512.663,394.303 517.53,399.433 "/>
    <polygon style="fill: none; fill-opacity:0; stroke-width: 2; stroke: #000000" points="512.4,404.3 507.533,399.17 512.663,394.303 517.53,399.433 "/>
  </g>
  <line style="fill: none; fill-opacity:0; stroke-width: 2; stroke: #000000" x1="491.714" y1="422.2" x2="499.714" y2="392.2"/>
  <line style="fill: none; fill-opacity:0; stroke-width: 2; stroke-dasharray: 4; stroke: #000000" x1="390.9" y1="410.8" x2="521.4" y2="410.3"/>
  <path style="fill: none; fill-opacity:0; stroke-width: 2; stroke: #000000" d="M 572.4 362.3 L 572.4,381.7 C 582.4,379.275 592.4,376.85 592.4,388.975 C 592.4,401.1 572.4,403.525 572.4,396.25 C 572.4,388.975 592.4,391.4 592.4,403.525 C 592.4,415.65 572.4,418.075 572.4,410.8 C 572.4,403.525 592.4,405.95 592.4,418.075 C 592.4,430.2 572.4,432.625 572.4,425.35 C 572.4,418.075 592.4,420.5 592.4,432.625 C 592.4,444.75 577.4,442.325 572.4,439.9 L 572.4,459.3"/>
  <line style="fill: none; fill-opacity:0; stroke-width: 4; stroke: #000000" x1="613.086" y1="359.4" x2="612.086" y2="460.4"/>
  <g>
    <line style="fill: none; fill-opacity:0; stroke-width: 2; stroke: #000000" x1="632.4" y1="322.3" x2="632.4" y2="395.128"/>
    <polygon style="fill: #000000" points="632.4,402.3 627.4,397.3 632.4,392.3 637.4,397.3 "/>
    <polygon style="fill: none; fill-opacity:0; stroke-width: 2; stroke: #000000" points="632.4,402.3 627.4,397.3 632.4,392.3 637.4,397.3 "/>
  </g>
  <line style="fill: none; fill-opacity:0; stroke-width: 2; stroke: #ff0000" x1="652.4" y1="582.3" x2="652.4" y2="422.3"/>
  <line style="fill: none; fill-opacity:0; stroke-width: 2; stroke: #000000" x1="652.4" y1="422.3" x2="662.086" y2="390.4"/>
  <g>
    <line style="fill: none; fill-opacity:0; stroke-width: 2; stroke: #000000" x1="672.4" y1="362.3" x2="672.4" y2="395.128"/>
    <polygon style="fill: #000000" points="672.4,402.3 667.4,397.3 672.4,392.3 677.4,397.3 "/>
    <polygon style="fill: none; fill-opacity:0; stroke-width: 2; stroke: #000000" points="672.4,402.3 667.4,397.3 672.4,392.3 677.4,397.3 "/>
  </g>
  <g>
    <line style="fill: none; fill-opacity:0; stroke-width: 2; stroke: #000000" x1="692.4" y1="362.3" x2="692.4" y2="395.128"/>
    <polygon style="fill: #000000" points="692.4,402.3 687.4,397.3 692.4,392.3 697.4,397.3 "/>
    <polygon style="fill: none; fill-opacity:0; stroke-width: 2; stroke: #000000" points="692.4,402.3 687.4,397.3 692.4,392.3 697.4,397.3 "/>
  </g>
  <line style="fill: none; fill-opacity:0; stroke-width: 2; stroke: #000000" x1="713.4" y1="421.3" x2="721.4" y2="391.3"/>
  <g>
    <line style="fill: none; fill-opacity:0; stroke-width: 2; stroke: #1e90ff" x1="732.4" y1="282.3" x2="732.4" y2="395.128"/>
    <polygon style="fill: #1e90ff" points="732.4,402.3 727.4,397.3 732.4,392.3 737.4,397.3 "/>
    <polygon style="fill: none; fill-opacity:0; stroke-width: 2; stroke: #1e90ff" points="732.4,402.3 727.4,397.3 732.4,392.3 737.4,397.3 "/>
  </g>
  <line style="fill: none; fill-opacity:0; stroke-width: 2; stroke-dasharray: 4; stroke: #000000" x1="612.586" y1="409.9" x2="743.086" y2="409.4"/>
  <path style="fill: none; fill-opacity:0; stroke-width: 2; stroke: #000000" d="M 792.4 362.3 L 792.4,381.7 C 802.4,379.275 812.4,376.85 812.4,388.975 C 812.4,401.1 792.4,403.525 792.4,396.25 C 792.4,388.975 812.4,391.4 812.4,403.525 C 812.4,415.65 792.4,418.075 792.4,410.8 C 792.4,403.525 812.4,405.95 812.4,418.075 C 812.4,430.2 792.4,432.625 792.4,425.35 C 792.4,418.075 812.4,420.5 812.4,432.625 C 812.4,444.75 797.4,442.325 792.4,439.9 L 792.4,459.3"/>
  <line style="fill: none; fill-opacity:0; stroke-width: 4; stroke: #000000" x1="831.4" y1="360.3" x2="830.4" y2="461.3"/>
  <g>
    <line style="fill: none; fill-opacity:0; stroke-width: 2; stroke: #000000" x1="852.4" y1="322.3" x2="852.4" y2="395.128"/>
    <polygon style="fill: #000000" points="852.4,402.3 847.4,397.3 852.4,392.3 857.4,397.3 "/>
    <polygon style="fill: none; fill-opacity:0; stroke-width: 2; stroke: #000000" points="852.4,402.3 847.4,397.3 852.4,392.3 857.4,397.3 "/>
  </g>
  <line style="fill: none; fill-opacity:0; stroke-width: 2; stroke: #ff0000" x1="872.4" y1="582.3" x2="871.4" y2="420.3"/>
  <line style="fill: none; fill-opacity:0; stroke-width: 2; stroke: #000000" x1="872.4" y1="421.3" x2="880.4" y2="391.3"/>
  <g>
    <line style="fill: none; fill-opacity:0; stroke-width: 2; stroke: #000000" x1="892.4" y1="362.3" x2="892.4" y2="395.128"/>
    <polygon style="fill: #000000" points="892.4,402.3 887.4,397.3 892.4,392.3 897.4,397.3 "/>
    <polygon style="fill: none; fill-opacity:0; stroke-width: 2; stroke: #000000" points="892.4,402.3 887.4,397.3 892.4,392.3 897.4,397.3 "/>
  </g>
  <g>
    <line style="fill: none; fill-opacity:0; stroke-width: 2; stroke: #ffa500" x1="912.4" y1="322.3" x2="912.4" y2="395.128"/>
    <polygon style="fill: #ffa500" points="912.4,402.3 907.4,397.3 912.4,392.3 917.4,397.3 "/>
    <polygon style="fill: none; fill-opacity:0; stroke-width: 2; stroke: #ffa500" points="912.4,402.3 907.4,397.3 912.4,392.3 917.4,397.3 "/>
  </g>
  <line style="fill: none; fill-opacity:0; stroke-width: 2; stroke: #dfd100" x1="933.4" y1="622.3" x2="933.4" y2="422.3"/>
  <line style="fill: none; fill-opacity:0; stroke-width: 2; stroke: #000000" x1="931.714" y1="422.2" x2="939.714" y2="392.2"/>
  <line style="fill: none; fill-opacity:0; stroke-width: 2; stroke-dasharray: 4; stroke: #000000" x1="830.9" y1="410.8" x2="961.4" y2="410.3"/>
  <line style="fill: none; fill-opacity:0; stroke-width: 2; stroke-dasharray: 8; stroke: #ff0000" x1="312.4" y1="502.3" x2="792.4" y2="502.3"/>
  <line style="fill: none; fill-opacity:0; stroke-width: 2; stroke-dasharray: 8; stroke: #ff0000" x1="792.4" y1="459.3" x2="792.4" y2="502.3"/>
  <line style="fill: none; fill-opacity:0; stroke-width: 2; stroke-dasharray: 8; stroke: #ff0000" x1="572.4" y1="459.3" x2="572.4" y2="502.3"/>
  <line style="fill: none; fill-opacity:0; stroke-width: 2; stroke-dasharray: 8; stroke: #ff0000" x1="352.4" y1="459.3" x2="352.4" y2="502.3"/>
  <line style="fill: none; fill-opacity:0; stroke-width: 2; stroke-dasharray: 8; stroke: #ff0000" x1="312.4" y1="502.3" x2="312.4" y2="162.3"/>
  <text font-size="12.8" style="fill: #000000;text-anchor:middle;font-family:sans-serif;font-style:normal;font-weight:normal" x="312.4" y="142.3">
    <tspan x="312.4" y="142.3">RH</tspan>
    <tspan x="312.4" y="158.3">24VAC</tspan>
  </text>
  <line style="fill: none; fill-opacity:0; stroke-width: 2; stroke-dasharray: 8; stroke: #000000" x1="352.4" y1="362.3" x2="352.4" y2="282.3"/>
  <text font-size="12.8" style="fill: #000000;text-anchor:middle;font-family:sans-serif;font-style:normal;font-weight:normal" x="392.4" y="142.3">
    <tspan x="392.4" y="142.3">W1</tspan>
  </text>
  <text font-size="12.8" style="fill: #000000;text-anchor:start;font-family:sans-serif;font-style:normal;font-weight:normal" x="452.4" y="222.3">
    <tspan x="452.4" y="222.3"></tspan>
  </text>
  <text font-size="12.8" style="fill: #000000;text-anchor:middle;font-family:sans-serif;font-style:normal;font-weight:normal" x="432.4" y="142.3">
    <tspan x="432.4" y="142.3">W2</tspan>
  </text>
  <text font-size="12.8" style="fill: #000000;text-anchor:start;font-family:sans-serif;font-style:normal;font-weight:normal" x="512.4" y="242.3">
    <tspan x="512.4" y="242.3"></tspan>
  </text>
  <text font-size="12.8" style="fill: #000000;text-anchor:middle;font-family:sans-serif;font-style:normal;font-weight:normal" x="472.4" y="142.3">
    <tspan x="472.4" y="142.3">W3</tspan>
  </text>
  <line style="fill: none; fill-opacity:0; stroke-width: 2; stroke-dasharray: 8; stroke: #000000" x1="352.4" y1="282.3" x2="392.4" y2="282.3"/>
  <line style="fill: none; fill-opacity:0; stroke-width: 2; stroke-dasharray: 8; stroke: #000000" x1="392.4" y1="282.3" x2="392.4" y2="142.3"/>
  <line style="fill: none; fill-opacity:0; stroke-width: 2; stroke-dasharray: 8; stroke: #000000" x1="792.4" y1="362.3" x2="792.4" y2="242.3"/>
  <line style="fill: none; fill-opacity:0; stroke-width: 2; stroke-dasharray: 8; stroke: #000000" x1="792.4" y1="242.3" x2="472.4" y2="242.3"/>
  <line style="fill: none; fill-opacity:0; stroke-width: 2; stroke-dasharray: 8; stroke: #000000" x1="472.4" y1="242.3" x2="472.4" y2="142.3"/>
  <line style="fill: none; fill-opacity:0; stroke-width: 2; stroke-dasharray: 8; stroke: #000000" x1="572.4" y1="362.3" x2="572.4" y2="282.3"/>
  <line style="fill: none; fill-opacity:0; stroke-width: 2; stroke-dasharray: 8; stroke: #000000" x1="572.4" y1="282.3" x2="432.4" y2="282.3"/>
  <line style="fill: none; fill-opacity:0; stroke-width: 2; stroke-dasharray: 8; stroke: #000000" x1="432.4" y1="282.3" x2="432.4" y2="142.3"/>
  <text font-size="12.8" style="fill: #000000;text-anchor:middle;font-family:sans-serif;font-style:normal;font-weight:normal" x="161.287" y="586.725">
    <tspan x="161.287" y="586.725">RH</tspan>
  </text>
  <text font-size="12.8" style="fill: #000000;text-anchor:middle;font-family:sans-serif;font-style:normal;font-weight:normal" x="161.287" y="546.725">
    <tspan x="161.287" y="546.725">W</tspan>
  </text>
  <line style="fill: none; fill-opacity:0; stroke-width: 2; stroke: #000000" x1="852.4" y1="322.3" x2="272.4" y2="322.3"/>
  <line style="fill: none; fill-opacity:0; stroke-width: 2; stroke: #000000" x1="272.4" y1="322.3" x2="272.4" y2="542.3"/>
  <line style="fill: none; fill-opacity:0; stroke-width: 2; stroke: #000000" x1="272.4" y1="542.3" x2="172.4" y2="542.3"/>
  <line style="fill: none; fill-opacity:0; stroke-width: 2; stroke: #ff0000" x1="872.4" y1="582.3" x2="172.4" y2="582.3"/>
  <text font-size="12.8" style="fill: #000000;text-anchor:middle;font-family:sans-serif;font-style:normal;font-weight:normal" x="512.4" y="794.2">
    <tspan x="512.4" y="794.2">Yellow</tspan>
  </text>
  <text font-size="12.8" style="fill: #000000;text-anchor:middle;font-family:sans-serif;font-style:normal;font-weight:normal" x="792.4" y="794.2">
    <tspan x="792.4" y="794.2">Orange</tspan>
  </text>
  <text font-size="12.8" style="fill: #000000;text-anchor:middle;font-family:sans-serif;font-style:normal;font-weight:normal" x="732.4" y="794.2">
    <tspan x="732.4" y="794.2">Blue</tspan>
  </text>
  <line style="fill: none; fill-opacity:0; stroke-width: 2; stroke: #dfd100" x1="512.4" y1="622.3" x2="932.4" y2="622.3"/>
  <line style="fill: none; fill-opacity:0; stroke-width: 2; stroke: #1e90ff" x1="732.4" y1="282.3" x2="1072.4" y2="282.3"/>
  <line style="fill: none; fill-opacity:0; stroke-width: 2; stroke: #1e90ff" x1="1072.4" y1="282.3" x2="1072.4" y2="662.3"/>
  <line style="fill: none; fill-opacity:0; stroke-width: 2; stroke: #1e90ff" x1="1072.4" y1="662.3" x2="732.4" y2="662.3"/>
  <line style="fill: none; fill-opacity:0; stroke-width: 2; stroke: #ffa500" x1="912.4" y1="322.3" x2="1112.4" y2="322.3"/>
  <line style="fill: none; fill-opacity:0; stroke-width: 2; stroke: #ffa500" x1="1112.4" y1="322.3" x2="1112.4" y2="702.3"/>
  <line style="fill: none; fill-opacity:0; stroke-width: 2; stroke: #ffa500" x1="1112.4" y1="702.3" x2="792.4" y2="702.3"/>
  <line style="fill: none; fill-opacity:0; stroke-width: 2; stroke: #ffa500" x1="792.4" y1="702.3" x2="792.4" y2="782.3"/>
  <line style="fill: none; fill-opacity:0; stroke-width: 2; stroke: #1e90ff" x1="732.4" y1="662.3" x2="732.4" y2="782.3"/>
  <line style="fill: none; fill-opacity:0; stroke-width: 2; stroke: #dfd100" x1="512.4" y1="622.3" x2="512.4" y2="762.3"/>
  <text font-size="12.8" style="fill: #000000;text-anchor:start;font-family:sans-serif;font-style:normal;font-weight:normal" x="368.4" y="453.3">
    <tspan x="368.4" y="453.3">R1</tspan>
  </text>
  <text font-size="12.8" style="fill: #000000;text-anchor:start;font-family:sans-serif;font-style:normal;font-weight:normal" x="593.4" y="454.3">
    <tspan x="593.4" y="454.3">R2</tspan>
  </text>
  <text font-size="12.8" style="fill: #000000;text-anchor:start;font-family:sans-serif;font-style:normal;font-weight:normal" x="812.538" y="454.2">
    <tspan x="812.538" y="454.2">R3</tspan>
  </text>
  <ellipse style="fill: none; fill-opacity:0; stroke-width: 2; stroke-dasharray: 4.4; stroke: #000000" cx="382.4" cy="140.529" rx="110" ry="38.229"/>
  <text font-size="12.8" style="fill: #000000;text-anchor:start;font-family:sans-serif;font-style:normal;font-weight:normal" x="472.4" y="102.3">
    <tspan x="472.4" y="102.3">to Nest Thermostat</tspan>
  </text>
  <ellipse style="fill: none; fill-opacity:0; stroke-width: 2; stroke-dasharray: 4; stroke: #000000" cx="162.806" cy="565.433" rx="30.4056" ry="54.4472"/>
  <text font-size="12.8" style="fill: #000000;text-anchor:start;font-family:sans-serif;font-style:normal;font-weight:normal" x="692.4" y="472.3">
    <tspan x="692.4" y="472.3"></tspan>
  </text>
  <text font-size="12.8" style="fill: #000000;text-anchor:start;font-family:sans-serif;font-style:normal;font-weight:normal" x="692.4" y="472.3">
    <tspan x="692.4" y="472.3"></tspan>
  </text>
  <text font-size="12.8" style="fill: #000000;text-anchor:start;font-family:sans-serif;font-style:normal;font-weight:normal" x="692.4" y="472.3">
    <tspan x="692.4" y="472.3">o</tspan>
  </text>
  <text font-size="22.5778" style="fill: #000000;text-anchor:start;font-family:sans-serif;font-style:normal;font-weight:normal" x="252.4" y="722.3">
    <tspan x="252.4" y="722.3">Nest/Pellet Adapter</tspan>
  </text>
  <line style="fill: none; fill-opacity:0; stroke-width: 2; stroke: #dfd100" x1="491.8" y1="622.7" x2="491.8" y2="422.7"/>
  <g>
    <line style="fill: none; fill-opacity:0; stroke-width: 2; stroke: #1e90ff" x1="479.4" y1="341.3" x2="479.235" y2="397.528"/>
    <polygon style="fill: #1e90ff" points="479.214,404.7 474.229,399.685 479.244,394.7 484.229,399.715 "/>
    <polygon style="fill: none; fill-opacity:0; stroke-width: 2; stroke: #1e90ff" points="479.214,404.7 474.229,399.685 479.244,394.7 484.229,399.715 "/>
  </g>
  <g>
    <line style="fill: none; fill-opacity:0; stroke-width: 2; stroke: #000000" x1="952.4" y1="362.3" x2="952.4" y2="395.128"/>
    <polygon style="fill: #000000" points="952.4,402.3 947.4,397.3 952.4,392.3 957.4,397.3 "/>
    <polygon style="fill: none; fill-opacity:0; stroke-width: 2; stroke: #000000" points="952.4,402.3 947.4,397.3 952.4,392.3 957.4,397.3 "/>
  </g>
  <line style="fill: none; fill-opacity:0; stroke-width: 2; stroke: #1e90ff" x1="544.4" y1="344.3" x2="544.4" y2="540.3"/>
  <line style="fill: none; fill-opacity:0; stroke-width: 2; stroke: #dfd100" x1="491.4" y1="623.3" x2="514.4" y2="623.3"/>
  <line style="fill: none; fill-opacity:0; stroke-width: 2; stroke: #1e90ff" x1="479.8" y1="342.7" x2="544.4" y2="342.3"/>
  <line style="fill: none; fill-opacity:0; stroke-width: 2; stroke: #1e90ff" x1="544.2" y1="539.1" x2="715.4" y2="538.3"/>
  <line style="fill: none; fill-opacity:0; stroke-width: 2; stroke: #1e90ff" x1="713.4" y1="422.3" x2="712.8" y2="538.7"/>
</svg>
