<?xml version="1.0" encoding="UTF-8" standalone="no"?>
<!DOCTYPE svg PUBLIC "-//W3C//DTD SVG 1.0//EN" "http://www.w3.org/TR/2001/PR-SVG-20010719/DTD/svg10.dtd">
<svg width="52cm" height="57cm" viewBox="-93 88 1035 1134" xmlns="http://www.w3.org/2000/svg" xmlns:xlink="http://www.w3.org/1999/xlink">
  <g>
    <rect style="fill: #e5e5e5" x="20" y="200" width="920" height="540"/>
    <rect style="fill: none; fill-opacity:0; stroke-width: 4; stroke-dasharray: 20 4 4 4 4 4; stroke: #000000" x="20" y="200" width="920" height="540"/>
  </g>
  <g>
    <rect style="fill: #e5e5e5" x="60" y="820" width="560" height="400"/>
    <rect style="fill: none; fill-opacity:0; stroke-width: 4; stroke-dasharray: 20 4 4 4 4 4; stroke: #000000" x="60" y="820" width="560" height="400"/>
  </g>
  <ellipse style="fill: none; fill-opacity:0; stroke-width: 2; stroke-dasharray: 4; stroke: #000000" cx="201" cy="960" rx="50" ry="50"/>
  <ellipse style="fill: none; fill-opacity:0; stroke-width: 2; stroke-dasharray: 4; stroke: #000000" cx="659" cy="406.948" rx="99" ry="66.9479"/>
  <ellipse style="fill: none; fill-opacity:0; stroke-width: 2; stroke-dasharray: 4; stroke: #000000" cx="439" cy="406.948" rx="99" ry="66.9479"/>
  <ellipse style="fill: none; fill-opacity:0; stroke-width: 2; stroke-dasharray: 4; stroke: #000000" cx="219" cy="406.948" rx="99" ry="66.9479"/>
  <path style="fill: none; fill-opacity:0; stroke-width: 2; stroke: #000000" d="M 140 360 L 140,379.4 C 150,376.975 160,374.55 160,386.675 C 160,398.8 140,401.225 140,393.95 C 140,386.675 160,389.1 160,401.225 C 160,413.35 140,415.775 140,408.5 C 140,401.225 160,403.65 160,415.775 C 160,427.9 140,430.325 140,423.05 C 140,415.775 160,418.2 160,430.325 C 160,442.45 145,440.025 140,437.6 L 140,457"/>
  <line style="fill: none; fill-opacity:0; stroke-width: 4; stroke: #000000" x1="179" y1="358" x2="178" y2="459"/>
  <g>
    <line style="fill: none; fill-opacity:0; stroke-width: 2; stroke: #000000" x1="200" y1="320" x2="200" y2="392.828"/>
    <polygon style="fill: #000000" points="200,400 195,395 200,390 205,395 "/>
    <polygon style="fill: none; fill-opacity:0; stroke-width: 2; stroke: #000000" points="200,400 195,395 200,390 205,395 "/>
  </g>
  <line style="fill: none; fill-opacity:0; stroke-width: 2; stroke: #ff0000" x1="220" y1="580" x2="219" y2="418"/>
  <line style="fill: none; fill-opacity:0; stroke-width: 2; stroke: #000000" x1="220" y1="419" x2="228" y2="389"/>
  <g>
    <line style="fill: none; fill-opacity:0; stroke-width: 2; stroke: #000000" x1="240" y1="360" x2="240" y2="392.828"/>
    <polygon style="fill: #000000" points="240,400 235,395 240,390 245,395 "/>
    <polygon style="fill: none; fill-opacity:0; stroke-width: 2; stroke: #000000" points="240,400 235,395 240,390 245,395 "/>
  </g>
  <g>
    <line style="fill: none; fill-opacity:0; stroke-width: 2; stroke: #000000" x1="260" y1="360" x2="260" y2="392.828"/>
    <polygon style="fill: #000000" points="260,400 255,395 260,390 265,395 "/>
    <polygon style="fill: none; fill-opacity:0; stroke-width: 2; stroke: #000000" points="260,400 255,395 260,390 265,395 "/>
  </g>
  <line style="fill: none; fill-opacity:0; stroke-width: 2; stroke: #000000" x1="279.314" y1="459.9" x2="278.314" y2="418.9"/>
  <line style="fill: none; fill-opacity:0; stroke-width: 2; stroke: #000000" x1="279.314" y1="419.9" x2="287.314" y2="389.9"/>
  <g>
    <line style="fill: none; fill-opacity:0; stroke-width: 2; stroke: #000000" x1="300" y1="360" x2="300" y2="392.828"/>
    <polygon style="fill: #000000" points="300,400 295,395 300,390 305,395 "/>
    <polygon style="fill: none; fill-opacity:0; stroke-width: 2; stroke: #000000" points="300,400 295,395 300,390 305,395 "/>
  </g>
  <line style="fill: none; fill-opacity:0; stroke-width: 2; stroke-dasharray: 4; stroke: #000000" x1="178.5" y1="408.5" x2="309" y2="408"/>
  <path style="fill: none; fill-opacity:0; stroke-width: 2; stroke: #000000" d="M 360 360 L 360,379.4 C 370,376.975 380,374.55 380,386.675 C 380,398.8 360,401.225 360,393.95 C 360,386.675 380,389.1 380,401.225 C 380,413.35 360,415.775 360,408.5 C 360,401.225 380,403.65 380,415.775 C 380,427.9 360,430.325 360,423.05 C 360,415.775 380,418.2 380,430.325 C 380,442.45 365,440.025 360,437.6 L 360,457"/>
  <line style="fill: none; fill-opacity:0; stroke-width: 4; stroke: #000000" x1="400.686" y1="357.1" x2="399.686" y2="458.1"/>
  <g>
    <line style="fill: none; fill-opacity:0; stroke-width: 2; stroke: #000000" x1="420" y1="320" x2="420" y2="392.828"/>
    <polygon style="fill: #000000" points="420,400 415,395 420,390 425,395 "/>
    <polygon style="fill: none; fill-opacity:0; stroke-width: 2; stroke: #000000" points="420,400 415,395 420,390 425,395 "/>
  </g>
  <line style="fill: none; fill-opacity:0; stroke-width: 2; stroke: #ff0000" x1="440" y1="580" x2="440" y2="420"/>
  <line style="fill: none; fill-opacity:0; stroke-width: 2; stroke: #000000" x1="440" y1="420" x2="449.686" y2="388.1"/>
  <g>
    <line style="fill: none; fill-opacity:0; stroke-width: 2; stroke: #000000" x1="460" y1="360" x2="460" y2="392.828"/>
    <polygon style="fill: #000000" points="460,400 455,395 460,390 465,395 "/>
    <polygon style="fill: none; fill-opacity:0; stroke-width: 2; stroke: #000000" points="460,400 455,395 460,390 465,395 "/>
  </g>
  <g>
    <line style="fill: none; fill-opacity:0; stroke-width: 2; stroke: #000000" x1="480" y1="360" x2="480" y2="392.828"/>
    <polygon style="fill: #000000" points="480,400 475,395 480,390 485,395 "/>
    <polygon style="fill: none; fill-opacity:0; stroke-width: 2; stroke: #000000" points="480,400 475,395 480,390 485,395 "/>
  </g>
  <line style="fill: none; fill-opacity:0; stroke-width: 2; stroke: #dfd100" x1="500" y1="540" x2="500" y2="418"/>
  <line style="fill: none; fill-opacity:0; stroke-width: 2; stroke: #000000" x1="501" y1="419" x2="509" y2="389"/>
  <g>
    <line style="fill: none; fill-opacity:0; stroke-width: 2; stroke: #1e90ff" x1="520" y1="280" x2="520" y2="392.828"/>
    <polygon style="fill: #1e90ff" points="520,400 515,395 520,390 525,395 "/>
    <polygon style="fill: none; fill-opacity:0; stroke-width: 2; stroke: #1e90ff" points="520,400 515,395 520,390 525,395 "/>
  </g>
  <line style="fill: none; fill-opacity:0; stroke-width: 2; stroke-dasharray: 4; stroke: #000000" x1="400.186" y1="407.6" x2="530.686" y2="407.1"/>
  <path style="fill: none; fill-opacity:0; stroke-width: 2; stroke: #000000" d="M 580 360 L 580,379.4 C 590,376.975 600,374.55 600,386.675 C 600,398.8 580,401.225 580,393.95 C 580,386.675 600,389.1 600,401.225 C 600,413.35 580,415.775 580,408.5 C 580,401.225 600,403.65 600,415.775 C 600,427.9 580,430.325 580,423.05 C 580,415.775 600,418.2 600,430.325 C 600,442.45 585,440.025 580,437.6 L 580,457"/>
  <line style="fill: none; fill-opacity:0; stroke-width: 4; stroke: #000000" x1="619" y1="358" x2="618" y2="459"/>
  <g>
    <line style="fill: none; fill-opacity:0; stroke-width: 2; stroke: #000000" x1="640" y1="320" x2="640" y2="392.828"/>
    <polygon style="fill: #000000" points="640,400 635,395 640,390 645,395 "/>
    <polygon style="fill: none; fill-opacity:0; stroke-width: 2; stroke: #000000" points="640,400 635,395 640,390 645,395 "/>
  </g>
  <line style="fill: none; fill-opacity:0; stroke-width: 2; stroke: #ff0000" x1="660" y1="580" x2="659" y2="418"/>
  <line style="fill: none; fill-opacity:0; stroke-width: 2; stroke: #000000" x1="660" y1="419" x2="668" y2="389"/>
  <g>
    <line style="fill: none; fill-opacity:0; stroke-width: 2; stroke: #000000" x1="680" y1="360" x2="680" y2="392.828"/>
    <polygon style="fill: #000000" points="680,400 675,395 680,390 685,395 "/>
    <polygon style="fill: none; fill-opacity:0; stroke-width: 2; stroke: #000000" points="680,400 675,395 680,390 685,395 "/>
  </g>
  <g>
    <line style="fill: none; fill-opacity:0; stroke-width: 2; stroke: #ffa500" x1="700" y1="320" x2="700" y2="392.828"/>
    <polygon style="fill: #ffa500" points="700,400 695,395 700,390 705,395 "/>
    <polygon style="fill: none; fill-opacity:0; stroke-width: 2; stroke: #ffa500" points="700,400 695,395 700,390 705,395 "/>
  </g>
  <line style="fill: none; fill-opacity:0; stroke-width: 2; stroke: #dfd100" x1="720" y1="620" x2="720" y2="420"/>
  <line style="fill: none; fill-opacity:0; stroke-width: 2; stroke: #000000" x1="719.314" y1="419.9" x2="727.314" y2="389.9"/>
  <g>
    <line style="fill: none; fill-opacity:0; stroke-width: 2; stroke: #dfd100" x1="740" y1="360" x2="740" y2="392.828"/>
    <polygon style="fill: #dfd100" points="740,400 735,395 740,390 745,395 "/>
    <polygon style="fill: none; fill-opacity:0; stroke-width: 2; stroke: #dfd100" points="740,400 735,395 740,390 745,395 "/>
  </g>
  <line style="fill: none; fill-opacity:0; stroke-width: 2; stroke-dasharray: 4; stroke: #000000" x1="618.5" y1="408.5" x2="749" y2="408"/>
  <line style="fill: none; fill-opacity:0; stroke-width: 2; stroke-dasharray: 8; stroke: #ff0000" x1="100" y1="500" x2="580" y2="500"/>
  <line style="fill: none; fill-opacity:0; stroke-width: 2; stroke-dasharray: 8; stroke: #ff0000" x1="580" y1="457" x2="580" y2="500"/>
  <line style="fill: none; fill-opacity:0; stroke-width: 2; stroke-dasharray: 8; stroke: #ff0000" x1="360" y1="457" x2="360" y2="500"/>
  <line style="fill: none; fill-opacity:0; stroke-width: 2; stroke-dasharray: 8; stroke: #ff0000" x1="140" y1="457" x2="140" y2="500"/>
  <line style="fill: none; fill-opacity:0; stroke-width: 2; stroke-dasharray: 8; stroke: #ff0000" x1="100" y1="500" x2="100" y2="160"/>
  <text font-size="12.7998" style="fill: #000000;text-anchor:middle;font-family:sans-serif;font-style:normal;font-weight:normal" x="100" y="140">
    <tspan x="100" y="140">RH</tspan>
    <tspan x="100" y="156">24VAC</tspan>
  </text>
  <line style="fill: none; fill-opacity:0; stroke-width: 2; stroke-dasharray: 8; stroke: #000000" x1="140" y1="360" x2="140" y2="280"/>
  <text font-size="12.7998" style="fill: #000000;text-anchor:middle;font-family:sans-serif;font-style:normal;font-weight:normal" x="180" y="140">
    <tspan x="180" y="140">W1</tspan>
  </text>
  <text font-size="12.7998" style="fill: #000000;text-anchor:start;font-family:sans-serif;font-style:normal;font-weight:normal" x="240" y="220">
    <tspan x="240" y="220"></tspan>
  </text>
  <text font-size="12.7998" style="fill: #000000;text-anchor:middle;font-family:sans-serif;font-style:normal;font-weight:normal" x="220" y="140">
    <tspan x="220" y="140">W2</tspan>
  </text>
  <text font-size="12.7998" style="fill: #000000;text-anchor:start;font-family:sans-serif;font-style:normal;font-weight:normal" x="300" y="240">
    <tspan x="300" y="240"></tspan>
  </text>
  <text font-size="12.7998" style="fill: #000000;text-anchor:middle;font-family:sans-serif;font-style:normal;font-weight:normal" x="260" y="140">
    <tspan x="260" y="140">W3</tspan>
  </text>
  <line style="fill: none; fill-opacity:0; stroke-width: 2; stroke-dasharray: 8; stroke: #000000" x1="140" y1="280" x2="180" y2="280"/>
  <line style="fill: none; fill-opacity:0; stroke-width: 2; stroke-dasharray: 8; stroke: #000000" x1="180" y1="280" x2="180" y2="140"/>
  <line style="fill: none; fill-opacity:0; stroke-width: 2; stroke-dasharray: 8; stroke: #000000" x1="580" y1="360" x2="580" y2="240"/>
  <line style="fill: none; fill-opacity:0; stroke-width: 2; stroke-dasharray: 8; stroke: #000000" x1="580" y1="240" x2="260" y2="240"/>
  <line style="fill: none; fill-opacity:0; stroke-width: 2; stroke-dasharray: 8; stroke: #000000" x1="260" y1="240" x2="260" y2="140"/>
  <line style="fill: none; fill-opacity:0; stroke-width: 2; stroke-dasharray: 8; stroke: #000000" x1="360" y1="360" x2="360" y2="280"/>
  <line style="fill: none; fill-opacity:0; stroke-width: 2; stroke-dasharray: 8; stroke: #000000" x1="360" y1="280" x2="220" y2="280"/>
  <line style="fill: none; fill-opacity:0; stroke-width: 2; stroke-dasharray: 8; stroke: #000000" x1="220" y1="280" x2="220" y2="140"/>
  <text font-size="12.7998" style="fill: #000000;text-anchor:middle;font-family:sans-serif;font-style:normal;font-weight:normal" x="-51.1127" y="584.425">
    <tspan x="-51.1127" y="584.425">RH</tspan>
  </text>
  <text font-size="12.7998" style="fill: #000000;text-anchor:middle;font-family:sans-serif;font-style:normal;font-weight:normal" x="-51.1127" y="544.425">
    <tspan x="-51.1127" y="544.425">W</tspan>
  </text>
  <line style="fill: none; fill-opacity:0; stroke-width: 2; stroke: #000000" x1="640" y1="320" x2="60" y2="320"/>
  <line style="fill: none; fill-opacity:0; stroke-width: 2; stroke: #000000" x1="60" y1="320" x2="60" y2="540"/>
  <line style="fill: none; fill-opacity:0; stroke-width: 2; stroke: #000000" x1="60" y1="540" x2="-40" y2="540"/>
  <line style="fill: none; fill-opacity:0; stroke-width: 2; stroke: #ff0000" x1="660" y1="580" x2="-40" y2="580"/>
  <text font-size="12.7998" style="fill: #000000;text-anchor:middle;font-family:sans-serif;font-style:normal;font-weight:normal" x="300" y="791.9">
    <tspan x="300" y="791.9">Yellow</tspan>
  </text>
  <text font-size="12.7998" style="fill: #000000;text-anchor:start;font-family:sans-serif;font-style:normal;font-weight:normal" x="120" y="920">
    <tspan x="120" y="920"></tspan>
  </text>
  <text font-size="12.7998" style="fill: #000000;text-anchor:middle;font-family:sans-serif;font-style:normal;font-weight:normal" x="580" y="791.9">
    <tspan x="580" y="791.9">Orange</tspan>
  </text>
  <text font-size="12.7998" style="fill: #000000;text-anchor:middle;font-family:sans-serif;font-style:normal;font-weight:normal" x="520" y="791.9">
    <tspan x="520" y="791.9">Blue</tspan>
  </text>
  <line style="fill: none; fill-opacity:0; stroke-width: 2; stroke: #dfd100" x1="300" y1="620" x2="720" y2="620"/>
  <line style="fill: none; fill-opacity:0; stroke-width: 2; stroke: #dfd100" x1="740" y1="360" x2="820" y2="360"/>
  <line style="fill: none; fill-opacity:0; stroke-width: 2; stroke: #dfd100" x1="820" y1="360" x2="820" y2="540"/>
  <line style="fill: none; fill-opacity:0; stroke-width: 2; stroke: #dfd100" x1="820" y1="540" x2="500" y2="540"/>
  <line style="fill: none; fill-opacity:0; stroke-width: 2; stroke: #1e90ff" x1="520" y1="280" x2="860" y2="280"/>
  <line style="fill: none; fill-opacity:0; stroke-width: 2; stroke: #1e90ff" x1="860" y1="280" x2="860" y2="660"/>
  <line style="fill: none; fill-opacity:0; stroke-width: 2; stroke: #1e90ff" x1="860" y1="660" x2="520" y2="660"/>
  <line style="fill: none; fill-opacity:0; stroke-width: 2; stroke: #ffa500" x1="700" y1="320" x2="900" y2="320"/>
  <line style="fill: none; fill-opacity:0; stroke-width: 2; stroke: #ffa500" x1="900" y1="320" x2="900" y2="700"/>
  <line style="fill: none; fill-opacity:0; stroke-width: 2; stroke: #ffa500" x1="900" y1="700" x2="580" y2="700"/>
  <text font-size="12.7998" style="fill: #000000;text-anchor:start;font-family:sans-serif;font-style:normal;font-weight:normal" x="359.314" y="1039.9">
    <tspan x="359.314" y="1039.9"></tspan>
  </text>
  <g>
    <line style="fill: none; fill-opacity:0; stroke-width: 2; stroke: #1e90ff" x1="407.172" y1="960" x2="520" y2="960"/>
    <polygon style="fill: #1e90ff" points="400,960 405,955 410,960 405,965 "/>
    <polygon style="fill: none; fill-opacity:0; stroke-width: 2; stroke: #1e90ff" points="400,960 405,955 410,960 405,965 "/>
  </g>
  <g>
    <line style="fill: none; fill-opacity:0; stroke-width: 2; stroke: #ffa500" x1="407.172" y1="1000" x2="580" y2="1000"/>
    <polygon style="fill: #ffa500" points="400,1000 405,995 410,1000 405,1005 "/>
    <polygon style="fill: none; fill-opacity:0; stroke-width: 2; stroke: #ffa500" points="400,1000 405,995 410,1000 405,1005 "/>
  </g>
  <line style="fill: none; fill-opacity:0; stroke-width: 2; stroke: #1e90ff" x1="520" y1="960" x2="520" y2="800"/>
  <line style="fill: none; fill-opacity:0; stroke-width: 2; stroke: #ffa500" x1="580" y1="1000" x2="580" y2="800"/>
  <line style="fill: none; fill-opacity:0; stroke-width: 2; stroke: #ffa500" x1="580" y1="700" x2="580" y2="780"/>
  <line style="fill: none; fill-opacity:0; stroke-width: 2; stroke: #1e90ff" x1="520" y1="660" x2="520" y2="780"/>
  <line style="fill: none; fill-opacity:0; stroke-width: 2; stroke: #dfd100" x1="380" y1="980" x2="320" y2="980"/>
  <line style="fill: none; fill-opacity:0; stroke-width: 2; stroke: #000000" x1="380" y1="980" x2="411.238" y2="988.698"/>
  <g>
    <line style="fill: none; fill-opacity:0; stroke-width: 2; stroke: #dfd100" x1="207.172" y1="940" x2="300" y2="940"/>
    <polygon style="fill: #dfd100" points="200,940 205,935 210,940 205,945 "/>
    <polygon style="fill: none; fill-opacity:0; stroke-width: 2; stroke: #dfd100" points="200,940 205,935 210,940 205,945 "/>
  </g>
  <g>
    <line style="fill: none; fill-opacity:0; stroke-width: 2; stroke: #dfd100" x1="207.172" y1="979.999" x2="319.862" y2="979.988"/>
    <polygon style="fill: #dfd100" points="200,980 204.999,974.999 210,979.999 205.001,984.999 "/>
    <polygon style="fill: none; fill-opacity:0; stroke-width: 2; stroke: #dfd100" points="200,980 204.999,974.999 210,979.999 205.001,984.999 "/>
  </g>
  <line style="fill: none; fill-opacity:0; stroke-width: 2; stroke: #dfd100" x1="180" y1="960" x2="140" y2="960"/>
  <line style="fill: none; fill-opacity:0; stroke-width: 2; stroke: #000000" x1="180" y1="960" x2="211.238" y2="968.698"/>
  <line style="fill: none; fill-opacity:0; stroke-width: 2; stroke: #dfd100" x1="300" y1="620" x2="300" y2="760"/>
  <line style="fill: none; fill-opacity:0; stroke-width: 2; stroke: #dfd100" x1="300" y1="940" x2="300" y2="800"/>
  <text font-size="12.7998" style="fill: #000000;text-anchor:middle;font-family:sans-serif;font-style:normal;font-weight:normal" x="300" y="1151.9">
    <tspan x="300" y="1151.9">Yellow</tspan>
  </text>
  <text font-size="12.7998" style="fill: #000000;text-anchor:middle;font-family:sans-serif;font-style:normal;font-weight:normal" x="360" y="1151.9">
    <tspan x="360" y="1151.9">Blue</tspan>
  </text>
  <text font-size="12.7998" style="fill: #000000;text-anchor:middle;font-family:sans-serif;font-style:normal;font-weight:normal" x="420" y="1151.9">
    <tspan x="420" y="1151.9">Orange</tspan>
  </text>
  <line style="fill: none; fill-opacity:0; stroke-width: 2; stroke: #1e90ff" x1="520" y1="960" x2="520" y2="1040"/>
  <line style="fill: none; fill-opacity:0; stroke-width: 2; stroke: #1e90ff" x1="520" y1="1040" x2="360" y2="1040"/>
  <line style="fill: none; fill-opacity:0; stroke-width: 2; stroke: #1e90ff" x1="360" y1="1040" x2="360" y2="1140"/>
  <line style="fill: none; fill-opacity:0; stroke-width: 2; stroke: #ffa500" x1="580" y1="1000" x2="580" y2="1080"/>
  <line style="fill: none; fill-opacity:0; stroke-width: 2; stroke: #ffa500" x1="580" y1="1080" x2="420" y2="1080"/>
  <line style="fill: none; fill-opacity:0; stroke-width: 2; stroke: #ffa500" x1="420" y1="1080" x2="420" y2="1140"/>
  <line style="fill: none; fill-opacity:0; stroke-width: 2; stroke: #dfd100" x1="140" y1="960" x2="140" y2="1080"/>
  <line style="fill: none; fill-opacity:0; stroke-width: 2; stroke: #dfd100" x1="140" y1="1080" x2="300" y2="1080"/>
  <line style="fill: none; fill-opacity:0; stroke-width: 2; stroke: #dfd100" x1="300" y1="1080" x2="300" y2="1140"/>
  <ellipse style="fill: none; fill-opacity:0; stroke-width: 2; stroke-dasharray: 4; stroke: #000000" cx="400.138" cy="982.098" rx="50" ry="50"/>
  <text font-size="12.7998" style="fill: #000000;text-anchor:start;font-family:sans-serif;font-style:normal;font-weight:normal" x="156" y="451">
    <tspan x="156" y="451">R1</tspan>
  </text>
  <text font-size="12.7998" style="fill: #000000;text-anchor:start;font-family:sans-serif;font-style:normal;font-weight:normal" x="381" y="452">
    <tspan x="381" y="452">R2</tspan>
  </text>
  <text font-size="12.7998" style="fill: #000000;text-anchor:start;font-family:sans-serif;font-style:normal;font-weight:normal" x="600.138" y="451.9">
    <tspan x="600.138" y="451.9">R3</tspan>
  </text>
  <ellipse style="fill: none; fill-opacity:0; stroke-width: 2; stroke-dasharray: 4.4; stroke: #000000" cx="170" cy="138.229" rx="110" ry="38.229"/>
  <text font-size="12.7998" style="fill: #000000;text-anchor:start;font-family:sans-serif;font-style:normal;font-weight:normal" x="260" y="100">
    <tspan x="260" y="100">to Nest Thermostat</tspan>
  </text>
  <ellipse style="fill: none; fill-opacity:0; stroke-width: 2; stroke-dasharray: 4; stroke: #000000" cx="-49.5944" cy="563.134" rx="30.4056" ry="54.4472"/>
  <text font-size="12.7998" style="fill: #000000;text-anchor:middle;font-family:sans-serif;font-style:normal;font-weight:normal" x="-46.2453" y="467.148">
    <tspan x="-46.2453" y="467.148">to Pellet Stove</tspan>
    <tspan x="-46.2453" y="483.148">thermostat </tspan>
    <tspan x="-46.2453" y="499.148">connector</tspan>
  </text>
  <ellipse style="fill: none; fill-opacity:0; stroke-width: 2; stroke-dasharray: 4; stroke: #000000" cx="354.243" cy="1147.17" rx="110" ry="30"/>
  <text font-size="12.7998" style="fill: #000000;text-anchor:start;font-family:sans-serif;font-style:normal;font-weight:normal" x="380" y="1180">
    <tspan x="380" y="1180"></tspan>
  </text>
  <text font-size="12.7998" style="fill: #000000;text-anchor:start;font-family:sans-serif;font-style:normal;font-weight:normal" x="320" y="1200">
    <tspan x="320" y="1200">internal Pellet Stove high/medium/low control</tspan>
  </text>
  <text font-size="12.7998" style="fill: #000000;text-anchor:middle;font-family:sans-serif;font-style:normal;font-weight:normal" x="400" y="889.899">
    <tspan x="400" y="889.899">existing</tspan>
    <tspan x="400" y="905.899">high/medium/low</tspan>
    <tspan x="400" y="921.899">switch</tspan>
  </text>
  <text font-size="12.7998" style="fill: #000000;text-anchor:middle;font-family:sans-serif;font-style:normal;font-weight:normal" x="204.07" y="869.588">
    <tspan x="204.07" y="869.588">manual</tspan>
    <tspan x="204.07" y="885.588">by-pass</tspan>
    <tspan x="204.07" y="901.588">switch</tspan>
  </text>
  <text font-size="12.7998" style="fill: #000000;text-anchor:start;font-family:sans-serif;font-style:normal;font-weight:normal" x="480" y="470">
    <tspan x="480" y="470"></tspan>
  </text>
  <text font-size="12.7998" style="fill: #000000;text-anchor:start;font-family:sans-serif;font-style:normal;font-weight:normal" x="480" y="470">
    <tspan x="480" y="470"></tspan>
  </text>
  <text font-size="12.7998" style="fill: #000000;text-anchor:start;font-family:sans-serif;font-style:normal;font-weight:normal" x="480" y="470">
    <tspan x="480" y="470">o</tspan>
  </text>
  <text font-size="22.5778" style="fill: #000000;text-anchor:start;font-family:sans-serif;font-style:normal;font-weight:normal" x="40" y="720">
    <tspan x="40" y="720">Nest/Pellet Adapter</tspan>
  </text>
  <text font-size="22.5778" style="fill: #000000;text-anchor:start;font-family:sans-serif;font-style:normal;font-weight:normal" x="80" y="1200">
    <tspan x="80" y="1200">Pellet Stove </tspan>
  </text>
</svg>
