<?xml version="1.0" encoding="UTF-8" standalone="no"?>
<!DOCTYPE svg PUBLIC "-//W3C//DTD SVG 1.0//EN" "http://www.w3.org/TR/2001/PR-SVG-20010719/DTD/svg10.dtd">
<svg width="50cm" height="24cm" viewBox="8 1 983 463" xmlns="http://www.w3.org/2000/svg" xmlns:xlink="http://www.w3.org/1999/xlink">
  <g>
    <rect style="fill: #bfbfbf" x="10" y="3" width="980" height="460"/>
    <rect style="fill: none; fill-opacity:0; stroke-width: 2; stroke: #000000" x="10" y="3" width="980" height="460"/>
  </g>
  <g>
    <rect style="fill: #ffffff" x="551" y="241.909" width="132.364" height="66.1818"/>
    <ellipse style="fill: #ffffff" cx="617.182" cy="308.091" rx="66.1818" ry="18.9091"/>
    <ellipse style="fill: #ffffff" cx="617.182" cy="241.909" rx="66.1818" ry="18.9091"/>
    <path style="fill: none; fill-opacity:0; stroke-width: 1; stroke: #000000" d="M 551 241.909 L 551,308.091"/>
    <path style="fill: none; fill-opacity:0; stroke-width: 1; stroke: #000000" d="M 683.364 241.909 L 683.364,308.091"/>
    <path style="fill: none; fill-opacity:0; stroke-width: 1; stroke: #000000" d="M 551 241.909 C 551,231.466 591.074,223 617.182,223 C 643.29,223 683.364,231.466 683.364,241.909"/>
    <path style="fill: none; fill-opacity:0; stroke-width: 1; stroke: #000000" d="M 551 241.909 C 551,252.352 591.074,260.818 617.182,260.818 C 643.29,260.818 683.364,252.352 683.364,241.909"/>
    <path style="fill: none; fill-opacity:0; stroke-width: 1; stroke: #000000" d="M 551 258.455 C 551,268.898 591.074,277.364 617.182,277.364 C 643.29,277.364 683.364,268.898 683.364,258.455"/>
    <path style="fill: none; fill-opacity:0; stroke-width: 1; stroke: #000000" d="M 551 275 C 551,285.443 591.074,293.909 617.182,293.909 C 643.29,293.909 683.364,285.443 683.364,275"/>
    <path style="fill: none; fill-opacity:0; stroke-width: 1; stroke: #000000" d="M 551 291.545 C 551,301.988 591.074,310.455 617.182,310.455 C 643.29,310.455 683.364,301.988 683.364,291.545"/>
    <path style="fill: none; fill-opacity:0; stroke-width: 1; stroke: #000000" d="M 551 308.091 C 551,318.534 591.074,327 617.182,327 C 643.29,327 683.364,318.534 683.364,308.091"/>
    <text font-size="12.8" style="fill: #000000;text-anchor:middle;font-family:sans-serif;font-style:normal;font-weight:normal" x="617.182" y="343.727">
      <tspan x="617.182" y="343.727">Postgres</tspan>
    </text>
  </g>
  <g>
    <rect style="fill: #ffffff" x="650" y="134.909" width="132.364" height="66.1818"/>
    <ellipse style="fill: #ffffff" cx="716.182" cy="201.091" rx="66.1818" ry="18.9091"/>
    <ellipse style="fill: #ffffff" cx="716.182" cy="134.909" rx="66.1818" ry="18.9091"/>
    <path style="fill: none; fill-opacity:0; stroke-width: 1; stroke: #000000" d="M 650 134.909 L 650,201.091"/>
    <path style="fill: none; fill-opacity:0; stroke-width: 1; stroke: #000000" d="M 782.364 134.909 L 782.364,201.091"/>
    <path style="fill: none; fill-opacity:0; stroke-width: 1; stroke: #000000" d="M 650 134.909 C 650,124.466 690.074,116 716.182,116 C 742.29,116 782.364,124.466 782.364,134.909"/>
    <path style="fill: none; fill-opacity:0; stroke-width: 1; stroke: #000000" d="M 650 134.909 C 650,145.352 690.074,153.818 716.182,153.818 C 742.29,153.818 782.364,145.352 782.364,134.909"/>
    <path style="fill: none; fill-opacity:0; stroke-width: 1; stroke: #000000" d="M 650 151.455 C 650,161.898 690.074,170.364 716.182,170.364 C 742.29,170.364 782.364,161.898 782.364,151.455"/>
    <path style="fill: none; fill-opacity:0; stroke-width: 1; stroke: #000000" d="M 650 168 C 650,178.443 690.074,186.909 716.182,186.909 C 742.29,186.909 782.364,178.443 782.364,168"/>
    <path style="fill: none; fill-opacity:0; stroke-width: 1; stroke: #000000" d="M 650 184.545 C 650,194.988 690.074,203.455 716.182,203.455 C 742.29,203.455 782.364,194.988 782.364,184.545"/>
    <path style="fill: none; fill-opacity:0; stroke-width: 1; stroke: #000000" d="M 650 201.091 C 650,211.534 690.074,220 716.182,220 C 742.29,220 782.364,211.534 782.364,201.091"/>
    <text font-size="12.8" style="fill: #000000;text-anchor:middle;font-family:sans-serif;font-style:normal;font-weight:normal" x="716.182" y="236.727">
      <tspan x="716.182" y="236.727">HBase</tspan>
    </text>
  </g>
  <g>
    <rect style="fill: #ffffff" x="283" y="68.3117" width="65.1818" height="32.5909"/>
    <ellipse style="fill: #ffffff" cx="315.591" cy="100.903" rx="32.5909" ry="9.31169"/>
    <ellipse style="fill: #ffffff" cx="315.591" cy="68.3117" rx="32.5909" ry="9.31169"/>
    <path style="fill: none; fill-opacity:0; stroke-width: 1; stroke: #000000" d="M 283 68.3117 L 283,100.903"/>
    <path style="fill: none; fill-opacity:0; stroke-width: 1; stroke: #000000" d="M 348.182 68.3117 L 348.182,100.903"/>
    <path style="fill: none; fill-opacity:0; stroke-width: 1; stroke: #000000" d="M 283 68.3117 C 283,63.1691 302.734,59 315.591,59 C 328.448,59 348.182,63.1691 348.182,68.3117"/>
    <path style="fill: none; fill-opacity:0; stroke-width: 1; stroke: #000000" d="M 283 68.3117 C 283,73.4543 302.734,77.6234 315.591,77.6234 C 328.448,77.6234 348.182,73.4543 348.182,68.3117"/>
    <path style="fill: none; fill-opacity:0; stroke-width: 1; stroke: #000000" d="M 283 76.4594 C 283,81.602 302.734,85.7711 315.591,85.7711 C 328.448,85.7711 348.182,81.602 348.182,76.4594"/>
    <path style="fill: none; fill-opacity:0; stroke-width: 1; stroke: #000000" d="M 283 84.6071 C 283,89.7498 302.734,93.9188 315.591,93.9188 C 328.448,93.9188 348.182,89.7498 348.182,84.6071"/>
    <path style="fill: none; fill-opacity:0; stroke-width: 1; stroke: #000000" d="M 283 92.7549 C 283,97.8975 302.734,102.067 315.591,102.067 C 328.448,102.067 348.182,97.8975 348.182,92.7549"/>
    <path style="fill: none; fill-opacity:0; stroke-width: 1; stroke: #000000" d="M 283 100.903 C 283,106.045 302.734,110.214 315.591,110.214 C 328.448,110.214 348.182,106.045 348.182,100.903"/>
    <text font-size="12.8" style="fill: #000000;text-anchor:middle;font-family:sans-serif;font-style:normal;font-weight:normal" x="315.591" y="124.542">
      <tspan x="315.591" y="124.542">LocalFS</tspan>
    </text>
  </g>
  <g><!--arrow between collectors and FS-->
    <line style="fill: none; fill-opacity:0; stroke-width: 2; stroke: #000000" x1="206.3" y1="102.6" x2="272.404" y2="91.7171"/>
    <polygon style="fill: #000000" points="279.805,90.4987 270.75,97.0568 272.404,91.7171 269.125,87.1896 "/>
    <polygon style="fill: none; fill-opacity:0; stroke-width: 2; stroke: #000000" points="279.805,90.4987 270.75,97.0568 272.404,91.7171 269.125,87.1896 "/>
  </g>
  <g><!--arrow between FS and crashmover-->
    <line style="fill: none; fill-opacity:0; stroke-width: 2; stroke: #000000" x1="349.19" y1="70.9432" x2="387.981" y2="55.1677"/>
    <polygon style="fill: #000000" points="394.929,52.3424 387.549,60.7412 387.981,55.1677 383.782,51.4779 "/>
    <polygon style="fill: none; fill-opacity:0; stroke-width: 2; stroke: #000000" points="394.929,52.3424 387.549,60.7412 387.981,55.1677 383.782,51.4779 "/>
  </g>
  <g>
    <rect style="fill: #ffffff" x="846" y="277" width="120" height="37"/>
    <rect style="fill: none; fill-opacity:0; stroke-width: 2; stroke: #000000" x="846" y="277" width="120" height="37"/>
  </g>
  <g>
    <rect style="fill: #ffffff" x="826" y="257" width="120" height="37"/>
    <rect style="fill: none; fill-opacity:0; stroke-width: 2; stroke: #000000" x="826" y="257" width="120" height="37"/>
  </g>
  <g>
    <rect style="fill: #ffffff" x="806" y="237" width="120" height="37"/>
    <rect style="fill: none; fill-opacity:0; stroke-width: 2; stroke: #000000" x="806" y="237" width="120" height="37"/>
  </g>
  <text font-size="12.8" style="fill: #000000;text-anchor:start;font-family:sans-serif;font-style:normal;font-weight:normal" x="906" y="295.5">
    <tspan x="906" y="295.5"></tspan>
  </text>
  <text font-size="12.8" style="fill: #000000;text-anchor:start;font-family:sans-serif;font-style:normal;font-weight:normal" x="830" y="258.5">
    <tspan x="830" y="258.5">Processors</tspan>
  </text>
  <g>
    <rect style="fill: #ffffff" x="449.3" y="350.009" width="132.364" height="66.1818"/>
    <ellipse style="fill: #ffffff" cx="515.482" cy="416.191" rx="66.1818" ry="18.9091"/>
    <ellipse style="fill: #ffffff" cx="515.482" cy="350.009" rx="66.1818" ry="18.9091"/>
    <path style="fill: none; fill-opacity:0; stroke-width: 1; stroke: #000000" d="M 449.3 350.009 L 449.3,416.191"/>
    <path style="fill: none; fill-opacity:0; stroke-width: 1; stroke: #000000" d="M 581.664 350.009 L 581.664,416.191"/>
    <path style="fill: none; fill-opacity:0; stroke-width: 1; stroke: #000000" d="M 449.3 350.009 C 449.3,339.566 489.374,331.1 515.482,331.1 C 541.59,331.1 581.664,339.566 581.664,350.009"/>
    <path style="fill: none; fill-opacity:0; stroke-width: 1; stroke: #000000" d="M 449.3 350.009 C 449.3,360.452 489.374,368.918 515.482,368.918 C 541.59,368.918 581.664,360.452 581.664,350.009"/>
    <path style="fill: none; fill-opacity:0; stroke-width: 1; stroke: #000000" d="M 449.3 366.555 C 449.3,376.998 489.374,385.464 515.482,385.464 C 541.59,385.464 581.664,376.998 581.664,366.555"/>
    <path style="fill: none; fill-opacity:0; stroke-width: 1; stroke: #000000" d="M 449.3 383.1 C 449.3,393.543 489.374,402.009 515.482,402.009 C 541.59,402.009 581.664,393.543 581.664,383.1"/>
    <path style="fill: none; fill-opacity:0; stroke-width: 1; stroke: #000000" d="M 449.3 399.645 C 449.3,410.088 489.374,418.555 515.482,418.555 C 541.59,418.555 581.664,410.088 581.664,399.645"/>
    <path style="fill: none; fill-opacity:0; stroke-width: 1; stroke: #000000" d="M 449.3 416.191 C 449.3,426.634 489.374,435.1 515.482,435.1 C 541.59,435.1 581.664,426.634 581.664,416.191"/>
    <text font-size="12.8" style="fill: #000000;text-anchor:middle;font-family:sans-serif;font-style:normal;font-weight:normal" x="515.482" y="451.827">
      <tspan x="515.482" y="451.827">ElasticSearch</tspan>
    </text>
  </g>
  <g><!--arrow between middleware and ES-->
    <line style="fill: none; fill-opacity:0; stroke-width: 2; stroke: #000000" x1="452.724" y1="343.115" x2="366.111" y2="287.932"/>
    <polygon style="fill: #000000" points="359.786,283.902 370.906,285.058 366.111,287.932 365.533,293.492 "/>
    <polygon style="fill: none; fill-opacity:0; stroke-width: 2; stroke: #000000" points="359.786,283.902 370.906,285.058 366.111,287.932 365.533,293.492 "/>
  </g>
  <g>
    <rect style="fill: #ffffff" x="765.3" y="38.0091" width="132.364" height="66.1818"/>
    <ellipse style="fill: #ffffff" cx="831.482" cy="104.191" rx="66.1818" ry="18.9091"/>
    <ellipse style="fill: #ffffff" cx="831.482" cy="38.0091" rx="66.1818" ry="18.9091"/>
    <path style="fill: none; fill-opacity:0; stroke-width: 1; stroke: #000000" d="M 765.3 38.0091 L 765.3,104.191"/>
    <path style="fill: none; fill-opacity:0; stroke-width: 1; stroke: #000000" d="M 897.664 38.0091 L 897.664,104.191"/>
    <path style="fill: none; fill-opacity:0; stroke-width: 1; stroke: #000000" d="M 765.3 38.0091 C 765.3,27.5661 805.374,19.1 831.482,19.1 C 857.59,19.1 897.664,27.5661 897.664,38.0091"/>
    <path style="fill: none; fill-opacity:0; stroke-width: 1; stroke: #000000" d="M 765.3 38.0091 C 765.3,48.4521 805.374,56.9182 831.482,56.9182 C 857.59,56.9182 897.664,48.4521 897.664,38.0091"/>
    <path style="fill: none; fill-opacity:0; stroke-width: 1; stroke: #000000" d="M 765.3 54.5545 C 765.3,64.9976 805.374,73.4636 831.482,73.4636 C 857.59,73.4636 897.664,64.9976 897.664,54.5545"/>
    <path style="fill: none; fill-opacity:0; stroke-width: 1; stroke: #000000" d="M 765.3 71.1 C 765.3,81.543 805.374,90.0091 831.482,90.0091 C 857.59,90.0091 897.664,81.543 897.664,71.1"/>
    <path style="fill: none; fill-opacity:0; stroke-width: 1; stroke: #000000" d="M 765.3 87.6455 C 765.3,98.0885 805.374,106.555 831.482,106.555 C 857.59,106.555 897.664,98.0885 897.664,87.6455"/>
    <path style="fill: none; fill-opacity:0; stroke-width: 1; stroke: #000000" d="M 765.3 104.191 C 765.3,114.634 805.374,123.1 831.482,123.1 C 857.59,123.1 897.664,114.634 897.664,104.191"/>
    <text font-size="12.8" style="fill: #000000;text-anchor:middle;font-family:sans-serif;font-style:normal;font-weight:normal" x="831.482" y="139.827">
      <tspan x="831.482" y="139.827">RabbitMQ</tspan>
    </text>
  </g>
  <g>
    <line style="fill: none; fill-opacity:0; stroke-width: 2; stroke: #000000" x1="559" y1="88.5" x2="640.319" y2="129.63"/>
    <polygon style="fill: #000000" points="647.012,133.015 635.832,132.963 640.319,129.63 640.345,124.04 "/>
    <polygon style="fill: none; fill-opacity:0; stroke-width: 2; stroke: #000000" points="647.012,133.015 635.832,132.963 640.319,129.63 640.345,124.04 "/>
  </g>
  <g>
    <rect style="fill: #ffffff" x="86.3" y="84.1" width="120" height="37"/>
    <rect style="fill: none; fill-opacity:0; stroke-width: 2; stroke: #000000" x="86.3" y="84.1" width="120" height="37"/>
  </g>
  <g>
    <rect style="fill: #ffffff" x="64.3" y="67.1" width="120" height="37"/>
    <rect style="fill: none; fill-opacity:0; stroke-width: 2; stroke: #000000" x="64.3" y="67.1" width="120" height="37"/>
  </g>
  <g>
    <rect style="fill: #ffffff" x="44.3" y="47.1" width="120" height="37"/>
    <rect style="fill: none; fill-opacity:0; stroke-width: 2; stroke: #000000" x="44.3" y="47.1" width="120" height="37"/>
  </g>
  <text font-size="12.8" style="fill: #000000;text-anchor:start;font-family:sans-serif;font-style:normal;font-weight:normal" x="146.3" y="102.6">
    <tspan x="146.3" y="102.6"></tspan>
  </text>
  <text font-size="12.8" style="fill: #000000;text-anchor:start;font-family:sans-serif;font-style:normal;font-weight:normal" x="70.3" y="69.6">
    <tspan x="70.3" y="69.6">Collectors</tspan>
  </text>
  <g>
    <rect style="fill: #ffffff" x="439" y="70" width="120" height="37"/>
    <rect style="fill: none; fill-opacity:0; stroke-width: 2; stroke: #000000" x="439" y="70" width="120" height="37"/>
  </g>
  <g>
    <rect style="fill: #ffffff" x="421" y="55" width="120" height="37"/>
    <rect style="fill: none; fill-opacity:0; stroke-width: 2; stroke: #000000" x="421" y="55" width="120" height="37"/>
  </g>
  <g>
    <rect style="fill: #ffffff" x="397" y="33" width="120" height="37"/>
    <rect style="fill: none; fill-opacity:0; stroke-width: 2; stroke: #000000" x="397" y="33" width="120" height="37"/>
  </g>
  <text font-size="12.8" style="fill: #000000;text-anchor:start;font-family:sans-serif;font-style:normal;font-weight:normal" x="499" y="88.5">
    <tspan x="499" y="88.5"></tspan>
  </text>
  <text font-size="12.8" style="fill: #000000;text-anchor:start;font-family:sans-serif;font-style:normal;font-weight:normal" x="416" y="55.5">
    <tspan x="416" y="55.5">CrashMovers</tspan>
  </text>
  <g><!--arrow between processors and HBase-->
    <line style="fill: none; fill-opacity:0; stroke-width: 2; stroke: #000000" x1="771.083" y1="221.484" x2="799.026" y2="248.706"/>
    <polygon style="fill: #000000" points="765.71,216.25 776.362,219.647 771.083,221.484 769.384,226.81 "/>
    <polygon style="fill: none; fill-opacity:0; stroke-width: 2; stroke: #000000" points="765.71,216.25 776.362,219.647 771.083,221.484 769.384,226.81 "/>
    <polygon style="fill: #000000" points="804.398,253.94 793.746,250.543 799.026,248.706 800.724,243.38 "/>
    <polygon style="fill: none; fill-opacity:0; stroke-width: 2; stroke: #000000" points="804.398,253.94 793.746,250.543 799.026,248.706 800.724,243.38 "/>
  </g>
  <g><!--arrow between processors and PG-->
    <line style="fill: none; fill-opacity:0; stroke-width: 2; stroke: #000000" x1="796.315" y1="256.5" x2="694.043" y2="267.062"/>
    <polygon style="fill: #000000" points="803.776,255.73 794.342,261.731 796.315,256.5 793.315,251.783 "/>
    <polygon style="fill: none; fill-opacity:0; stroke-width: 2; stroke: #000000" points="803.776,255.73 794.342,261.731 796.315,256.5 793.315,251.783 "/>
    <polygon style="fill: #000000" points="686.583,267.833 696.016,261.832 694.043,267.062 697.043,271.779 "/>
    <polygon style="fill: none; fill-opacity:0; stroke-width: 2; stroke: #000000" points="686.583,267.833 696.016,261.832 694.043,267.062 697.043,271.779 "/>
  </g>
  <g><!--arrow between middleware and PG-->
    <line style="fill: none; fill-opacity:0; stroke-width: 2; stroke: #000000" x1="550.003" y1="276.995" x2="367.632" y2="282.411"/>
    <polygon style="fill: #000000" points="360.135,282.634 369.982,277.339 367.632,282.411 370.279,287.335 "/>
    <polygon style="fill: none; fill-opacity:0; stroke-width: 2; stroke: #000000" points="360.135,282.634 369.982,277.339 367.632,282.411 370.279,287.335 "/>
  </g>
  <g><!--arrow between middleware and HBase-->
    <line style="fill: none; fill-opacity:0; stroke-width: 2; stroke: #000000" x1="648.993" y1="189.51" x2="367.172" y2="279.732"/>
    <polygon style="fill: #000000" points="360.03,282.018 368.029,274.207 367.172,279.732 371.078,283.731 "/>
    <polygon style="fill: none; fill-opacity:0; stroke-width: 2; stroke: #000000" points="360.03,282.018 368.029,274.207 367.172,279.732 371.078,283.731 "/>
  </g>
  <g>
    <rect style="fill: #ffffff" x="237.9" y="264.2" width="120" height="37"/>
    <rect style="fill: none; fill-opacity:0; stroke-width: 2; stroke: #000000" x="237.9" y="264.2" width="120" height="37"/>
  </g>
  <text font-size="12.8" style="fill: #000000;text-anchor:start;font-family:sans-serif;font-style:normal;font-weight:normal" x="386.9" y="366.7">
    <tspan x="386.9" y="366.7"></tspan>
  </text>
  <text font-size="12.8" style="fill: #000000;text-anchor:start;font-family:sans-serif;font-style:normal;font-weight:normal" x="265" y="284">
    <tspan x="265" y="284">Middleware</tspan>
  </text>
  <g>
    <rect style="fill: #ffffff" x="237" y="176.5" width="120" height="37"/>
    <rect style="fill: none; fill-opacity:0; stroke-width: 2; stroke: #000000" x="237" y="176.5" width="120" height="37"/>
  </g>
  <text font-size="12.8" style="fill: #000000;text-anchor:start;font-family:sans-serif;font-style:normal;font-weight:normal" x="334.6" y="263.6">
    <tspan x="334.6" y="263.6"></tspan>
  </text>
  <text font-size="12.8" style="fill: #000000;text-anchor:start;font-family:sans-serif;font-style:normal;font-weight:normal" x="263" y="197">
    <tspan x="263" y="197">Crontabber</tspan>
  </text>
  <g><!--arrow between crontabber and HBase-->
    <line style="fill: none; fill-opacity:0; stroke-width: 2; stroke: #000000" x1="649" y1="173.05" x2="366.709" y2="194.27"/>
    <polygon style="fill: #000000" points="359.23,194.832 368.827,189.097 366.709,194.27 369.576,199.069 "/>
    <polygon style="fill: none; fill-opacity:0; stroke-width: 2; stroke: #000000" points="359.23,194.832 368.827,189.097 366.709,194.27 369.576,199.069 "/>
  </g>
  <g><!--arrow between crontabber and PG-->
    <line style="fill: none; fill-opacity:0; stroke-width: 2; stroke: #000000" x1="366.306" y1="197.861" x2="540.694" y2="251.482"/>
    <polygon style="fill: #000000" points="359.137,195.657 370.165,193.817 366.306,197.861 367.226,203.375 "/>
    <polygon style="fill: none; fill-opacity:0; stroke-width: 2; stroke: #000000" points="359.137,195.657 370.165,193.817 366.306,197.861 367.226,203.375 "/>
    <polygon style="fill: #000000" points="547.863,253.686 536.835,255.526 540.694,251.482 539.774,245.968 "/>
    <polygon style="fill: none; fill-opacity:0; stroke-width: 2; stroke: #000000" points="547.863,253.686 536.835,255.526 540.694,251.482 539.774,245.968 "/>
  </g>
  <g><!--arrow between crashing ff and collector-->
    <line style="fill: none; fill-opacity:0; stroke-width: 2; stroke: #000000" x1="145.767" y1="194.002" x2="146.229" y2="130.836"/>
    <polygon style="fill: #000000" points="146.284,123.336 151.21,133.372 146.229,130.836 141.211,133.299 "/>
    <polygon style="fill: none; fill-opacity:0; stroke-width: 2; stroke: #000000" points="146.284,123.336 151.21,133.372 146.229,130.836 141.211,133.299 "/>
  </g>
  <g><!--webhead rear box-->
    <rect style="fill: #ffffff" x="280" y="385" width="120" height="37"/>
    <rect style="fill: none; fill-opacity:0; stroke-width: 2; stroke: #000000" x="280" y="385" width="120" height="37"/>
  </g>
  <g><!--webhead middle box-->
    <rect style="fill: #ffffff" x="258" y="368" width="120" height="37"/>
    <rect style="fill: none; fill-opacity:0; stroke-width: 2; stroke: #000000" x="258" y="368" width="120" height="37"/>
  </g>
  <g><!--webhead top box-->
    <rect style="fill: #ffffff" x="238" y="348" width="120" height="37"/>
    <rect style="fill: none; fill-opacity:0; stroke-width: 2; stroke: #000000" x="238" y="348" width="120" height="37"/>
  </g>
  <text font-size="12.8" style="fill: #000000;text-anchor:start;font-family:sans-serif;font-style:normal;font-weight:normal" x="264" y="370.5">
    <tspan x="264" y="370.5">WebHeads</tspan>
  </text>
  <g>
      <!--                   origin   to coll  to fs       bounce                                        -->
      <path id="somepath" d="M120,205 v -150   l 163, -20  v 10 v-10 v10 v-10 v 10 v-10 v 10 v -10 v 10 M270 25" fill="none" />
        <image x="0" y="0" width="70.4" height="70.4" xlink:href="file:///home/lars/work/pytn14/resources/ff-logo-100.ghost.png">
           <animateMotion dur="6s" repeatCount="1" fill="freeze">
                <mpath xlink:href="#somepath"/>
           </animateMotion>
      </image>
      <image x="111.3" y="331.3" width="70.4" height="70.4" xlink:href="file:///home/lars/work/pytn14/css/themes/mozilla/ff-logo-100.png"/>
      <image x="119.6" y="205.1" width="56.4" height="56.4" xlink:href="file:///home/lars/work/pytn14/css/themes/mozilla/ff-logo-100.png"/>
  </g>
  <ellipse style="fill: none; fill-opacity:0; stroke-width: 8; stroke: #a52a2a" cx="145.5" cy="230.5" rx="33.5" ry="32.5"/>
  <line style="fill: none; fill-opacity:0; stroke-width: 8; stroke: #a52a2a" x1="169.188" y1="207.519" x2="121.812" y2="253.481"/>
  <g>
    <path  style="fill: none; fill-opacity:0; stroke-width: 2; stroke: #000000" d="M 764.298 68.3344 C 616.117,62.2344 499.3,160 366.454,192.675"/>
    <polygon style="fill: #000000" points="359.171,194.466 367.688,187.222 366.454,192.675 370.076,196.933 "/>
    <polygon style="fill: none; fill-opacity:0; stroke-width: 2; stroke: #000000" points="359.171,194.466 367.688,187.222 366.454,192.675 370.076,196.933 "/>
  </g>
  <g>
    <path style="fill: none; fill-opacity:0; stroke-width: 2; stroke: #000000" d="M 764.293 71.1 C 612.044,71.1 495.3,216 366.659,278.448"/>
    <polygon style="fill: #000000" points="359.912,281.723 366.724,272.858 366.659,278.448 371.091,281.854 "/>
    <polygon style="fill: none; fill-opacity:0; stroke-width: 2; stroke: #000000" points="359.912,281.723 366.724,272.858 366.659,278.448 371.091,281.854 "/>
  </g>
  <g>
    <path style="fill: none; fill-opacity:0; stroke-width: 2; stroke: #000000" d="M 899.3 65 C 967.3,95 865.3,135 868.907,224.272"/>
    <polygon style="fill: #000000" points="869.21,231.766 863.81,221.976 868.907,224.272 873.802,221.572 "/>
    <polygon style="fill: none; fill-opacity:0; stroke-width: 2; stroke: #000000" points="869.21,231.766 863.81,221.976 868.907,224.272 873.802,221.572 "/>
  </g>
  <g>
    <path style="fill: none; fill-opacity:0; stroke-width: 2; stroke: #000000" d="M 806 255.5 C 724,294.5 678.211,383.1 592.392,383.1"/>
    <polygon style="fill: #000000" points="584.892,383.1 594.892,378.1 592.392,383.1 594.892,388.1 "/>
    <polygon style="fill: none; fill-opacity:0; stroke-width: 2; stroke: #000000" points="584.892,383.1 594.892,378.1 592.392,383.1 594.892,388.1 "/>
  </g>
  <g>
    <line style="fill: none; fill-opacity:0; stroke-width: 2; stroke: #000000" x1="297.9" y1="301.2" x2="297.979" y2="338.264"/>
    <polygon style="fill: #000000" points="297.995,345.764 292.974,335.775 297.979,338.264 302.974,335.753 "/>
    <polygon style="fill: none; fill-opacity:0; stroke-width: 2; stroke: #000000" points="297.995,345.764 292.974,335.775 297.979,338.264 302.974,335.753 "/>
  </g>
  <g>
    <line style="fill: none; fill-opacity:0; stroke-width: 2; stroke: #000000" x1="238" y1="366.5" x2="191.436" y2="366.5"/>
    <polygon style="fill: #000000" points="183.936,366.5 193.936,361.5 191.436,366.5 193.936,371.5 "/>
    <polygon style="fill: none; fill-opacity:0; stroke-width: 2; stroke: #000000" points="183.936,366.5 193.936,361.5 191.436,366.5 193.936,371.5 "/>
  </g>
  <g>
    <path style="fill: none; fill-opacity:0; stroke-width: 2; stroke: #000000" d="M 559 88.5 C 652,50.5 676.12,49.7818 754.656,60.5583"/>
    <polygon style="fill: #000000" points="762.087,61.5779 751.5,65.172 754.656,60.5583 752.859,55.2648 "/>
    <polygon style="fill: none; fill-opacity:0; stroke-width: 2; stroke: #000000" points="762.087,61.5779 751.5,65.172 754.656,60.5583 752.859,55.2648 "/>
  </g>
  <g>
    <rect style="fill: #ffffff" x="760" y="369.312" width="65.1818" height="32.5909"/>
    <ellipse style="fill: #ffffff" cx="792.591" cy="401.903" rx="32.5909" ry="9.31169"/>
    <ellipse style="fill: #ffffff" cx="792.591" cy="369.312" rx="32.5909" ry="9.31169"/>
    <path style="fill: none; fill-opacity:0; stroke-width: 1; stroke: #000000" d="M 760 369.312 L 760,401.903"/>
    <path style="fill: none; fill-opacity:0; stroke-width: 1; stroke: #000000" d="M 825.182 369.312 L 825.182,401.903"/>
    <path style="fill: none; fill-opacity:0; stroke-width: 1; stroke: #000000" d="M 760 369.312 C 760,364.169 779.734,360 792.591,360 C 805.448,360 825.182,364.169 825.182,369.312"/>
    <path style="fill: none; fill-opacity:0; stroke-width: 1; stroke: #000000" d="M 760 369.312 C 760,374.454 779.734,378.623 792.591,378.623 C 805.448,378.623 825.182,374.454 825.182,369.312"/>
    <path style="fill: none; fill-opacity:0; stroke-width: 1; stroke: #000000" d="M 760 377.459 C 760,382.602 779.734,386.771 792.591,386.771 C 805.448,386.771 825.182,382.602 825.182,377.459"/>
    <path style="fill: none; fill-opacity:0; stroke-width: 1; stroke: #000000" d="M 760 385.607 C 760,390.75 779.734,394.919 792.591,394.919 C 805.448,394.919 825.182,390.75 825.182,385.607"/>
    <path style="fill: none; fill-opacity:0; stroke-width: 1; stroke: #000000" d="M 760 393.755 C 760,398.897 779.734,403.067 792.591,403.067 C 805.448,403.067 825.182,398.897 825.182,393.755"/>
    <path style="fill: none; fill-opacity:0; stroke-width: 1; stroke: #000000" d="M 760 401.903 C 760,407.045 779.734,411.214 792.591,411.214 C 805.448,411.214 825.182,407.045 825.182,401.903"/>
    <text font-size="12.8" style="fill: #000000;text-anchor:middle;font-family:sans-serif;font-style:normal;font-weight:normal" x="792.591" y="425.542">
      <tspan x="792.591" y="425.542">SymbolStorage</tspan>
    </text>
  </g>
  <g>
    <path style="fill: none; fill-opacity:0; stroke-width: 2; stroke: #000000" d="M 826.3,388.1 A 66.0716,66.0716 0 0 0 906.701,323.632"/>
    <polygon style="fill: #000000" points="906.325,316.212 912.725,325.38 907.415,323.633 902.831,326.833 "/>
    <polygon style="fill: none; fill-opacity:0; stroke-width: 2; stroke: #000000" points="906.325,316.212 912.725,325.38 907.415,323.633 902.831,326.833 "/>
  </g>
</svg>
